<svg width="184" height="143" viewBox="0 0 184 143" fill="none" xmlns="http://www.w3.org/2000/svg">
<path d="M50.1892 49.347C55.4415 54.495 63.5963 57.7125 72.5804 57.7125C88.4755 57.7125 101.33 47.7382 101.33 35.4044C101.33 28.2186 97.0449 21.8908 90.2723 17.8153C85.7111 13.418 78.9384 10.3077 71.06 9.6642C55.3032 8.37719 41.2051 17.1717 39.4082 29.3983C38.4407 37.3349 42.7255 44.7352 50.1892 49.347ZM152.332 49.9905C147.356 43.4482 138.096 39.0509 127.591 39.0509C111.696 39.0509 98.8418 49.0252 98.8418 61.3591C98.8418 67.5796 102.159 73.2639 107.549 77.3394C112.525 83.7745 121.648 88.1718 132.152 88.1718C148.047 88.1718 160.763 78.1974 160.763 65.9708C160.901 59.643 157.584 54.066 152.332 49.9905ZM66.2224 73.1566C59.3116 73.1566 52.9535 75.1944 47.9777 78.4119C37.8878 81.5222 30.8387 89.137 30.8387 98.0388C30.8387 109.729 43.0019 119.167 58.0676 119.167C63.3199 119.167 68.2957 117.987 72.4422 115.95C84.8818 113.805 94.1424 105.117 94.1424 94.8213C94.1424 82.8092 81.7028 73.1566 66.2224 73.1566Z" fill="#1CA538"/>
<path d="M129.111 57.3907C127.038 50.3122 121.786 43.5554 105.614 46.2367C99.2564 47.3092 94.6952 51.3847 91.7926 56.5327C89.8576 51.8137 86.1257 46.8802 81.841 43.6626C80.0442 41.5176 78.8002 39.0509 79.0766 36.6913C79.3531 33.6883 81.0117 31.436 85.02 32.6158C89.0283 33.7956 85.02 37.7638 84.8818 37.8711C85.1582 37.7638 89.8576 35.4043 86.8168 32.4013C83.776 29.3983 80.1824 30.4708 77.1416 33.9028C75.7594 35.5116 75.6212 38.0856 76.1741 40.6596C75.483 40.4451 74.6537 40.2306 73.9626 40.1234C64.8402 38.8364 58.8969 41.1959 60.1408 47.6309C61.2466 54.066 70.6454 52.3499 71.1982 52.2427C70.9218 52.3499 59.8644 51.3847 62.767 46.2367C65.3931 41.0886 70.9218 42.0539 76.0359 45.3786C83.2232 50.0977 85.2964 59.5357 85.2964 66.1853C85.2964 66.1853 87.2315 77.1249 89.0283 81.7366L91.378 85.8122C87.0933 83.2382 81.9792 81.8439 76.0359 82.5947C66.7753 83.4527 54.1975 92.3545 60.2791 100.077C65.946 107.584 79.6295 103.401 77.8327 95.0358C77.8327 95.0358 77.6945 102.436 68.8485 100.935C60.0026 99.433 61.6612 91.711 68.4339 87.8499C74.5155 83.9889 84.4671 88.708 90.2723 91.711C108.517 102.007 97.0449 125.28 85.9875 136.435L114.875 135.469C114.875 135.469 113.907 121.312 114.184 116.057C114.46 110.802 111.972 104.581 110.867 98.4678C109.484 92.6762 105.2 87.9572 102.297 82.5947C99.1182 76.8031 94.0041 70.9043 94.8334 64.2548C95.5245 57.8197 101.606 49.2397 110.59 49.5614C119.16 49.8832 131.323 57.927 123.444 65.1128C113.769 73.6928 102.297 55.9965 117.778 57.6052C106.72 54.6022 103.818 69.2956 115.981 71.2261C126.623 72.9421 131.185 64.4693 129.111 57.3907Z" fill="#65320B"/>
</svg>
