<svg width="60" height="61" viewBox="0 0 60 61" fill="none" xmlns="http://www.w3.org/2000/svg">
    <path d="M31.6266 22.9271L31.1063 31.5896C31.1063 31.5896 32.8688 36.5771 32.3766 43.5193C31.9031 50.2084 30.1266 53.5927 29.6391 54.7646C29.1516 55.9365 27.7828 57.4037 29.6391 57.9896C31.4953 58.5756 34.6266 58.2849 35.9953 57.7927C37.3641 57.3052 38.0438 54.5865 38.2453 53.4896C38.7375 50.7756 39.0094 45.6427 38.011 40.5802C37.2469 36.6896 35.625 30.0193 35.625 30.0193L31.6266 22.9271Z" fill="#99C23B"/>
    <path d="M31.3031 21.6146C31.3031 21.6146 33.3094 15.3193 37.9219 10.5427C42.3422 5.96769 46.8563 4.46769 50.475 4.01769C54.4641 3.52081 56.0906 3.57238 56.775 4.06456C57.4594 4.55675 57.2156 5.33019 57.2297 6.01456C57.3188 10.9083 57.5016 17.2505 51.7453 23.0536C45.6 29.2411 41.2219 30.3521 36.4266 30.8442C31.6359 31.3317 32.1797 29.1474 32.1797 29.1474L31.3031 21.6146Z" fill="#99C23B"/>
    <path d="M1.39686 17.7006C1.22342 18.5584 5.75155 28.6271 14.4984 31.7959C23.9156 35.2131 32.7937 31.7959 32.7937 31.7959L33.525 22.7303L31.2984 21.6146C31.2984 21.6146 26.5781 16.4068 21.3328 14.485C15.8953 12.4928 9.74999 12.3381 5.56405 14.574C2.93905 15.9803 1.49061 17.2459 1.39686 17.7006Z" fill="#99C23B"/>
    <path d="M40.6312 14.7147C36.2719 19.8803 34.0734 25.0881 33.8437 26.4475C33.6141 27.8069 34.3687 27.7506 34.7953 27.1741C35.5641 26.1334 38.2406 21.3756 42.225 16.8428C45.675 12.9241 50.925 8.68656 51.6937 7.78187C52.1719 7.21937 51.6469 6.51156 50.925 6.83031C50.2031 7.14437 45.0891 9.43187 40.6312 14.7147Z" fill="#E6DC9F"/>
    <path d="M19.4203 19.5521C13.0453 17.3584 8.38126 17.6537 7.42969 17.9724C6.47813 18.2912 6.52501 19.3318 7.65469 19.4677C8.78438 19.6037 13.3922 20.0631 19.1672 22.1396C25.3313 24.3615 29.7234 27.7131 30.4969 28.1677C31.2656 28.6224 31.7672 27.7131 31.0875 26.8974C30.5672 26.2834 26.4516 21.9709 19.4203 19.5521Z" fill="#E6DC9F"/>
    </svg>