<svg width="126" height="126" viewBox="0 0 126 126" fill="none" xmlns="http://www.w3.org/2000/svg">
<g id="plant_svgrepo.com" clip-path="url(#clip0_23_85)">
<g id="Group">
<path id="Vector" d="M76.0521 30.7655C74.0045 32.8158 72.963 35.6593 72.7992 38.995C69.5592 39.0355 66.9091 40.2115 64.9528 42.1517V25.5187C64.9528 20.1344 67.5831 15.753 72.9679 15.753C77.9957 16.4205 82.2853 15.4764 85.1005 12.6727C87.9193 9.85729 88.8597 5.56774 88.1788 0.543814C83.1586 -0.131479 78.869 0.79943 76.0519 3.62609C74.004 5.67663 72.9625 8.51989 72.799 11.8556C65.3673 11.9484 61.0468 18.0384 61.0468 25.5184V31.4994C58.5421 28.9379 55.0582 27.326 51.2501 27.2779C51.088 23.9405 50.0424 21.0951 47.9967 19.0431C45.1815 16.224 40.8917 15.2838 35.868 15.9645C35.1908 20.9847 36.1234 25.2743 38.9484 28.0914C41.7599 30.899 46.0511 31.8356 51.0773 31.1756C56.4618 31.1756 61.0468 35.5568 61.0468 40.9413V56.89C58.5421 54.3285 55.0582 52.7167 51.2501 52.6686C51.088 49.3312 50.0424 46.4857 47.9967 44.4337C45.1815 41.6146 40.8917 40.6744 35.868 41.3551C35.1908 46.3754 36.1234 50.6649 38.9484 53.482C41.7599 56.2897 46.0511 57.2262 51.0773 56.5663C56.4618 56.5663 61.0468 60.9474 61.0468 66.3319V76.5052H64.953V52.6581C64.953 47.2738 67.5836 42.8924 72.9679 42.8924C72.9679 42.8929 72.9679 42.8937 72.9679 42.8937C77.9957 43.5638 82.2872 42.6178 85.1007 39.8138C87.9196 36.9986 88.86 32.7089 88.1791 27.6852C83.1588 27.0082 78.8693 27.9408 76.0521 30.7655Z" fill="#3CB44A"/>
<g id="Group_2">
<path id="Vector_2" d="M64.9531 25.5183C64.9531 20.1338 67.5832 15.7527 72.9683 15.7527V15.7515H72.9714C77.9976 16.4202 82.2881 15.4741 85.1008 12.6709C87.9194 9.85596 88.8596 5.56665 88.1794 0.543457L75.8687 12.8545C75.136 13.5869 74.1423 13.9985 73.1064 13.9985H72.7656L72.7659 14.002C66.4055 14.002 63 19.158 63 25.5186V44.7378C63.5452 43.7783 64.1934 42.905 64.9531 42.1519V25.5183Z" fill="#0E9247"/>
<path id="Vector_3" d="M88.1792 27.6863L75.8684 39.9973C75.136 40.73 74.1423 41.1416 73.1062 41.1416H72.7659C66.4055 41.1416 63 46.2976 63 52.6582V76.5051H64.9531V52.658C64.9531 47.2734 67.5835 42.8923 72.968 42.8923L72.9683 42.894H72.9717L72.9714 42.8943C77.9973 43.5627 82.2883 42.6167 85.1008 39.8135C87.9192 36.9988 88.8596 32.7095 88.1792 27.6863Z" fill="#0E9247"/>
</g>
<path id="Vector_4" d="M88.3906 76.5051H37.6094C36.5352 76.5051 35.6562 77.384 35.6562 78.4583V86.2708C35.6562 87.345 36.5352 88.2239 37.6094 88.2239H39.5625L44.9014 122.036C45.2009 123.935 46.8374 125.333 48.7598 125.333H59.0938H63H77.2402C79.1624 125.333 80.7988 123.935 81.0986 122.036L86.4375 88.2239H88.3906C89.4648 88.2239 90.3438 87.345 90.3438 86.2708V78.4583C90.3438 77.384 89.4648 76.5051 88.3906 76.5051Z" fill="#ED2C39"/>
<path id="Vector_5" d="M86.4375 82.3645C86.4375 83.4431 85.563 84.3176 84.4844 84.3176H41.5156C39.3582 84.3176 37.6094 86.0664 37.6094 88.2239H76.6719L71.9497 118.13C71.6499 120.029 70.0137 121.427 68.0913 121.427H44.8049L44.9014 122.036C45.2012 123.935 46.8376 125.333 48.76 125.333H77.2402C79.1626 125.333 80.7988 123.935 81.0986 122.036L86.4375 88.2239H88.3906C89.4692 88.2239 90.3438 87.3494 90.3438 86.2708V78.4583C88.1863 78.4583 86.4375 80.207 86.4375 82.3645Z" fill="#CB202C"/>
<g id="Group_3">
<path id="Vector_6" d="M51.281 29.4248L51.2815 29.4194H50.9409C49.905 29.4194 48.9114 29.0078 48.179 28.2754L35.8682 15.9644C35.1878 20.9875 36.1279 25.2766 38.9468 28.0918C41.7593 30.895 46.0501 31.8411 51.0762 31.1724H51.0759H51.0772V31.1755C56.4617 31.1755 61.0466 35.5566 61.0466 40.9412V34.6272C58.9287 31.4961 55.3079 29.4253 51.281 29.4248Z" fill="#0E9247"/>
<path id="Vector_7" d="M51.281 54.8154L51.2815 54.8101H50.9409C49.905 54.8101 48.9114 54.3984 48.179 53.666L35.8682 41.355C35.1878 46.3782 36.1279 50.6672 38.9468 53.4824C41.7593 56.2856 46.0501 57.2317 51.0762 56.563H51.0759H51.0772V56.5662C56.4617 56.5662 61.0466 60.9473 61.0466 66.3318V60.0178C58.9287 56.8867 55.3079 54.8159 51.281 54.8154Z" fill="#0E9247"/>
</g>
</g>
</g>
<defs>
<clipPath id="clip0_23_85">
<rect width="125" height="125" fill="white" transform="translate(0.5 0.333252)"/>
</clipPath>
</defs>
</svg>
